<svg width="126" height="45" viewBox="0 0 126 45" fill="none" xmlns="http://www.w3.org/2000/svg">
<path fillRule="evenodd" clipRule="evenodd" d="M2.20683 19.0927C1.87002 19.2853 1.47069 19.3368 1.09607 19.2358C0.721451 19.1349 0.402008 18.8898 0.207537 18.5541C0.0130667 18.2183 -0.040625 17.8193 0.0581953 17.4441C0.157016 17.0689 0.400317 16.7481 0.734934 16.5518L8.68824 11.9599C8.91446 11.8288 9.17158 11.7605 9.43303 11.762C9.69449 11.7635 9.95079 11.8348 10.1755 11.9685L18.0206 16.4982C18.269 16.6189 18.4785 16.8071 18.625 17.0412C18.7715 17.2753 18.8492 17.5459 18.8491 17.8221V20.7252C18.8492 21.0014 18.7715 21.272 18.625 21.5061C18.4785 21.7402 18.269 21.9284 18.0206 22.0491L15.3358 23.5993C15.0985 23.7364 14.8276 23.8043 14.5538 23.7954C14.2799 23.7866 14.014 23.7013 13.7861 23.5492L6.44163 19.3119L9.37234 17.6197L14.5968 20.6363L15.907 19.8806V18.6679L9.42559 14.9257L2.20683 19.0927Z" fill="black"/>
<path fillRule="evenodd" clipRule="evenodd" d="M16.6423 25.7352C16.8092 25.636 16.9942 25.5709 17.1865 25.5437C17.3788 25.5164 17.5746 25.5276 17.7625 25.5766C17.9505 25.6255 18.1268 25.7113 18.2814 25.8289C18.436 25.9464 18.5657 26.0935 18.663 26.2616C18.7603 26.4296 18.8234 26.6153 18.8484 26.8079C18.8735 27.0005 18.8601 27.1962 18.809 27.3835C18.758 27.5709 18.6702 27.7463 18.5509 27.8995C18.4316 28.0528 18.2831 28.1808 18.1139 28.2762L10.1609 32.8679C9.93468 32.999 9.67756 33.0673 9.4161 33.0658C9.15463 33.0643 8.89832 32.993 8.67365 32.8592L0.828504 28.3295C0.580072 28.2088 0.370621 28.0207 0.224105 27.7865C0.0775893 27.5524 -7.35203e-05 27.2818 5.22247e-08 27.0056V24.1025C-4.07597e-05 23.8263 0.0776338 23.5557 0.224146 23.3216C0.370658 23.0875 0.580093 22.8993 0.828504 22.7786L3.51334 21.2284C3.75064 21.0909 4.02167 21.0227 4.29575 21.0314C4.56983 21.04 4.83601 21.1253 5.06414 21.2774L12.4072 25.517L9.47651 27.2091L4.25292 24.1925L2.9427 24.9483V26.1601L9.42438 29.902L16.6423 25.7352Z" fill="black"/>
<path d="M31.1451 14.6259C32.0743 14.6259 32.8864 14.7279 33.5814 14.9319C34.2765 15.1359 34.8355 15.3512 35.2585 15.5778C35.6816 15.8044 35.9385 15.9555 36.0291 16.0311L34.3973 18.7621C34.2765 18.6714 34.0687 18.5392 33.7741 18.3654C33.487 18.1917 33.1433 18.0368 32.7429 17.9008C32.35 17.7649 31.9383 17.6969 31.5077 17.6969C30.926 17.6969 30.4538 17.8026 30.0912 18.0142C29.7362 18.2181 29.5586 18.5241 29.5586 18.932C29.5586 19.2116 29.6531 19.4646 29.8419 19.6913C30.0383 19.9104 30.333 20.1219 30.7258 20.3259C31.1262 20.5223 31.6323 20.7376 32.2443 20.9718C32.8033 21.1757 33.3284 21.4175 33.8194 21.697C34.3104 21.9765 34.7411 22.3089 35.1112 22.6942C35.489 23.0719 35.7874 23.5101 36.0064 24.0087C36.2255 24.5073 36.3351 25.0739 36.3351 25.7085C36.3351 26.464 36.1802 27.1212 35.8705 27.6802C35.5607 28.2317 35.1377 28.6888 34.6013 29.0514C34.0725 29.414 33.4681 29.6822 32.7882 29.856C32.1158 30.0373 31.417 30.1279 30.6918 30.1279C29.6644 30.1279 28.7427 30.0108 27.9268 29.7766C27.1185 29.5424 26.465 29.2894 25.9664 29.0174C25.4678 28.7454 25.1694 28.5641 25.0712 28.4735L26.7596 25.6292C26.8503 25.6972 27.0241 25.8067 27.2809 25.9578C27.5453 26.1089 27.8664 26.2675 28.2441 26.4337C28.6219 26.5924 29.0222 26.7284 29.4453 26.8417C29.8759 26.955 30.299 27.0117 30.7145 27.0117C31.4095 27.0117 31.9308 26.8795 32.2783 26.615C32.6258 26.3431 32.7995 25.988 32.7995 25.5498C32.7995 25.225 32.69 24.9341 32.4709 24.6773C32.2518 24.4204 31.9232 24.1787 31.485 23.9521C31.0469 23.7179 30.4992 23.4723 29.8419 23.2155C29.1847 22.9511 28.569 22.63 27.9948 22.2523C27.4282 21.8745 26.9674 21.4024 26.6123 20.8358C26.2573 20.2692 26.0797 19.5666 26.0797 18.7281C26.0797 17.8895 26.3139 17.1643 26.7823 16.5523C27.2582 15.9329 27.8815 15.4569 28.6521 15.1245C29.4302 14.7921 30.2612 14.6259 31.1451 14.6259ZM42.3312 22.3656C42.3312 23.2193 42.505 23.9936 42.8525 24.6886C43.2076 25.3761 43.6948 25.9238 44.3143 26.3317C44.9413 26.7397 45.6666 26.9437 46.49 26.9437C47.3135 26.9437 48.0349 26.7397 48.6544 26.3317C49.2814 25.9238 49.7687 25.3761 50.1162 24.6886C50.4713 23.9936 50.6488 23.2193 50.6488 22.3656C50.6488 21.5119 50.4713 20.7414 50.1162 20.0539C49.7687 19.3664 49.2814 18.8187 48.6544 18.4108C48.0349 17.9953 47.3135 17.7875 46.49 17.7875C45.6666 17.7875 44.9413 17.9953 44.3143 18.4108C43.6948 18.8187 43.2076 19.3664 42.8525 20.0539C42.505 20.7414 42.3312 21.5119 42.3312 22.3656ZM38.807 22.3656C38.807 21.2777 38.9997 20.2654 39.3849 19.3287C39.7702 18.3843 40.3104 17.5609 41.0054 16.8583C41.7004 16.1557 42.5163 15.608 43.4531 15.2152C44.3898 14.8223 45.4022 14.6259 46.49 14.6259C47.593 14.6259 48.6091 14.8223 49.5383 15.2152C50.4751 15.608 51.2872 16.1557 51.9746 16.8583C52.6697 17.5609 53.206 18.3843 53.5838 19.3287C53.9691 20.2654 54.1617 21.2777 54.1617 22.3656C54.1617 23.461 53.9766 24.4809 53.6064 25.4252C53.2363 26.362 52.7074 27.1854 52.02 27.8955C51.3325 28.5981 50.5204 29.1458 49.5836 29.5387C48.6469 29.9315 47.6157 30.1279 46.49 30.1279C45.3417 30.1279 44.2954 29.9315 43.3511 29.5387C42.4143 29.1458 41.606 28.5981 40.9261 27.8955C40.2462 27.1854 39.7211 26.362 39.3509 25.4252C38.9883 24.4809 38.807 23.461 38.807 22.3656ZM60.0585 22.3656C60.0585 23.2193 60.2323 23.9936 60.5798 24.6886C60.9348 25.3761 61.4221 25.9238 62.0416 26.3317C62.6686 26.7397 63.3939 26.9437 64.2173 26.9437C65.0408 26.9437 65.7622 26.7397 66.3817 26.3317C67.0087 25.9238 67.496 25.3761 67.8435 24.6886C68.1986 23.9936 68.3761 23.2193 68.3761 22.3656C68.3761 21.5119 68.1986 20.7414 67.8435 20.0539C67.496 19.3664 67.0087 18.8187 66.3817 18.4108C65.7622 17.9953 65.0408 17.7875 64.2173 17.7875C63.3939 17.7875 62.6686 17.9953 62.0416 18.4108C61.4221 18.8187 60.9348 19.3664 60.5798 20.0539C60.2323 20.7414 60.0585 21.5119 60.0585 22.3656ZM56.5343 22.3656C56.5343 21.2777 56.7269 20.2654 57.1122 19.3287C57.4975 18.3843 58.0377 17.5609 58.7327 16.8583C59.4277 16.1557 60.2436 15.608 61.1804 15.2152C62.1171 14.8223 63.1294 14.6259 64.2173 14.6259C65.3203 14.6259 66.3364 14.8223 67.2656 15.2152C68.2023 15.608 69.0145 16.1557 69.7019 16.8583C70.397 17.5609 70.9333 18.3843 71.3111 19.3287C71.6963 20.2654 71.889 21.2777 71.889 22.3656C71.889 23.461 71.7039 24.4809 71.3337 25.4252C70.9635 26.362 70.4347 27.1854 69.7473 27.8955C69.0598 28.5981 68.2477 29.1458 67.3109 29.5387C66.3741 29.9315 65.3429 30.1279 64.2173 30.1279C63.069 30.1279 62.0227 29.9315 61.0784 29.5387C60.1416 29.1458 59.3333 28.5981 58.6534 27.8955C57.9735 27.1854 57.4484 26.362 57.0782 25.4252C56.7156 24.4809 56.5343 23.461 56.5343 22.3656ZM89.7926 29.856H85.7245L83.1861 19.4193H83.7981L81.2597 29.856H77.1689L73.758 14.8979H77.6449L79.4466 25.3912H79.4013L82.2116 14.8979H84.7613L87.5829 25.3912H87.5376L89.3393 14.8979H93.2262L89.7926 29.856ZM96.1167 14.8979H105.669V17.8668H99.4936V20.9151H105.613V23.7934H99.4936V26.887H105.669V29.856H96.1167V14.8979ZM109.062 14.8979H115.158C116.027 14.8979 116.801 15.0792 117.481 15.4418C118.161 15.8044 118.698 16.3295 119.09 17.017C119.491 17.6969 119.691 18.509 119.691 19.4533C119.691 20.3976 119.521 21.172 119.181 21.7763C118.849 22.3731 118.448 22.8226 117.98 23.1248C117.512 23.4195 117.077 23.597 116.677 23.6574L120.314 29.856H116.507L113.266 23.9181H112.45V29.856H109.062V14.8979ZM112.45 21.5724H113.946C114.55 21.5724 115.079 21.425 115.532 21.1304C115.986 20.8358 116.212 20.3145 116.212 19.5666C116.212 18.8187 115.989 18.3012 115.544 18.0142C115.098 17.7195 114.573 17.5722 113.968 17.5722H112.45V21.5724Z" fill="black"/>
</svg>
